# xmcd
#
# Track frame offsets:
# 150
# 14332
# 30763
# 41869
# 56051
# 66407
# 78789
# 92895
# 108801
# 120507
# 133339
# 144071
# 155551
# 170033
# 183151
# 197633
# 211139
# 222921
# 239877
# 258258
#
# Disc length: 3594 seconds
#
#
# Revision: 1
# Processed by: cddbd v1.5.2PL0 Copyright (c) Steve Scherf et al.
# Submitted via: FreeRIP 2.96 
#
DISCID=1a0e0814
DTITLE=Bread - Anthology (1985)
DYEAR=1999
DGENRE=Blues
TTITLE0=Anyway You Want Me
TTITLE1=Audrey
TTITLE2=Baby, I´m A Want You
TTITLE3=Dairy
TTITLE4=Dismal Day
TTITLE5=Down On My Knees
TTITLE6=Everything I Own
TTITLE7=Fancy Dancer
TTITLE8=If
TTITLE9=Iton't Matter To Me
TTITLE10=Let Your Love Go
TTITLE11=London Bridge
TTITLE12=Look What You've Done
TTITLE13=Lost Without Love
TTITLE14=Make It With You
TTITLE15=She's The Only One
TTITLE16=Sweet Surrender
TTITLE17=The Guitar Man
TTITLE18=The Last Tie
TTITLE19=Trucking
EXTD=
EXTT0=
EXTT1=
EXTT2=
EXTT3=
EXTT4=
EXTT5=
EXTT6=
EXTT7=
EXTT8=
EXTT9=
EXTT10=
EXTT11=
EXTT12=
EXTT13=
EXTT14=
EXTT15=
EXTT16=
EXTT17=
EXTT18=
EXTT19=
PLAYORDER=
